{"title":"Mr Robot S02E04 eps2 2 init 1 asec 1080p WEB-DL HEVC DD5.1 x265","uid":15438117,"size":1063311263,"categoryP":"video","categoryS":"hd___tv_shows","magnet":"?xt=urn:btih:55cd01b71e604f2c30b37886bd0cbe3cdb925fa9&amp;dn=Mr+Robot+S02E04+eps2+2+init+1+asec+1080p+WEB-DL+HEVC+DD5.1+x265&amp;tr=udp%3A%2F%2Ftracker.leechers-paradise.org%3A6969&amp;tr=udp%3A%2F%2Fzer0day.ch%3A1337&amp;tr=udp%3A%2F%2Fopen.demonii.com%3A1337&amp;tr=udp%3A%2F%2Ftracker.coppersurfer.tk%3A6969&amp;tr=udp%3A%2F%2Fexodus.desync.com%3A6969","seeders":9,"leechers":0,"uploader":"nayhtut","files":1,"time":1469788527,"description":"[Screenshots]\r\n\r\n \nhttps://s32.postimg.org/a95rtqm11/Mr_Robot_S02_E04_eps2_2_init_1_asec_1080p_WEB_DL.jpg \nhttps://s32.postimg.org/6e6z4ws91/Mr_Robot_S02_E04_eps2_2_init_1_asec_1080p_WEB_DL.jpg \nhttps://s32.postimg.org/879vt8dfp/Mr_Robot_S02_E04_eps2_2_init_1_asec_1080p_WEB_DL.jpg\r\n\r\n\r\n\r\nSource:  Mr Robot S02E04 eps2 2 init 1 asec 1080p WEB-DL DD5 1 H264-NTb  (2.49 GB)\r\n\r\nComplete name                            : Mr.Robot.S02E04.eps2.2.init.1.asec.1080p.WEB-DL.HEVC.DD5.1.x265.mkv\r\nFormat                                   : Matroska\r\nFormat version                           : Version 4 / Version 2\r\nFile size                                : 1 014 MiB\r\nDuration                                 : 1h 5mn\r\nOverall bit rate                         : 2 166 Kbps\r\nWriting application                      : Lavf57.25.100\r\nWriting library                          : Lavf57.25.100\r\n\r\nVideo\r\n\r\nID                                       : 1\r\nFormat                                   : V_MPEGH/ISO/HEVC\r\nCodec ID                                 : V_MPEGH/ISO/HEVC\r\nDuration                                 : 1h 5mn\r\nBit rate                                 : 1 739 Kbps\r\nWidth                                    : 1 920 pixels\r\nHeight                                   : 1 080 pixels\r\nDisplay aspect ratio                     : 16:9\r\nFrame rate                               : 25.000 fps\r\nBits/(Pixel*Frame)                       : 0.034\r\nStream size                              : 814 MiB (80%)\r\nWriting library                          : Lavc57.48.101 libx265\r\nLanguage                                 : English\r\nDefault                                  : Yes\r\nForced                                   : No\r\nDURATION                                 : 01:05:26.891000000\r\nNUMBER_OF_FRAMES                         : 94150\r\nNUMBER_OF_BYTES                          : 2479840066\r\n_STATISTICS_WRITING_APP                  : mkvmerge v8.3.0 ('Over the Horizon') 64bit\r\n_STATISTICS_WRITING_DATE_UTC             : 2016-07-28 18:13:57\r\n_STATISTICS_TAGS                         : BPS DURATION NUMBER_OF_FRAMES NUMBER_OF_BYTES\r\n\r\nAudio\r\n\r\nID                                       : 2\r\nFormat                                   : AC-3\r\nFormat/Info                              : Audio Coding 3\r\nMode extension                           : CM (complete main)\r\nFormat settings, Endianness              : Big\r\nCodec ID                                 : A_AC3\r\nDuration                                 : 1h 5mn\r\nBit rate mode                            : Constant\r\nBit rate                                 : 384 Kbps\r\nChannel(s)                               : 6 channels\r\nChannel positions                        : Front: L C R, Side: L R, LFE\r\nSampling rate                            : 48.0 KHz\r\nBit depth                                : 16 bits\r\nCompression mode                         : Lossy\r\nStream size                              : 180 MiB (18%)\r\nWriting library                          : Lavc57.24.102 ac3\r\nLanguage                                 : English\r\nDefault                                  : Yes\r\nForced                                   : No\r\nDURATION                                 : 01:05:26.847000000\r\nNUMBER_OF_FRAMES                         : 122712\r\nNUMBER_OF_BYTES                          : 188485632\r\n_STATISTICS_WRITING_APP                  : mkvmerge v8.3.0 ('Over the Horizon') 64bit\r\n_STATISTICS_WRITING_DATE_UTC             : 2016-07-28 18:13:57\r\n_STATISTICS_TAGS                         : BPS DURATION NUMBER_OF_FRAMES NUMBER_OF_BYTES\r\n\r\nText\r\n\r\nID                                       : 3\r\nFormat                                   : ASS\r\nCodec ID                                 : S_TEXT/ASS\r\nCodec ID/Info                            : Advanced Sub Station Alpha\r\nCompression mode                         : Lossless\r\nWriting library                          : Lavc57.48.101 ssa\r\nLanguage                                 : English\r\nDefault                                  : Yes\r\nForced                                   : No\r\nDURATION                                 : 01:04:50.937000000\r\nNUMBER_OF_FRAMES                         : 1066\r\nNUMBER_OF_BYTES                          : 30874\r\n_STATISTICS_WRITING_APP                  : mkvmerge v8.3.0 ('Over the Horizon') 64bit\r\n_STATISTICS_WRITING_DATE_UTC             : 2016-07-28 18:13:57\r\n_STATISTICS_TAGS                         : BPS DURATION NUMBER_OF_FRAMES NUMBER_OF_BYTES\r\n\r\nIMDb: http://www.imdb.com/title/tt4158110\r\n\r\n\r\n__--__--__--__--__--__--__--__--__--__--__--__--__--\r\n\r\n\r\nAfter adding torrent with maget link,\r\n\r\nplease add this  following trackers list to the torrent for better seeds.\r\n\r\n\r\nudp://tracker.coppersurfer.tk:6969/announce\r\n\r\nudp://tracker.opentrackr.org:1337/announce\r\n \nhttp://tracker.baravik.org:6970/announce\r\n \nhttp://tracker2.wasabii.com.tw:6969/announce\r\n\r\nudp://9.rarbg.me:2710/announce\r\n\r\n\r\n__--__--__--__--__--__--__--__--__--__--__--__--__--\r\n\r\n\r\nEnjoy!","torrent":{"xt":"urn:btih:55cd01b71e604f2c30b37886bd0cbe3cdb925fa9","amp;dn":"Mr+Robot+S02E04+eps2+2+init+1+asec+1080p+WEB-DL+HEVC+DD5.1+x265","amp;tr":["udp%3A%2F%2Ftracker.leechers-paradise.org%3A6969","udp%3A%2F%2Fzer0day.ch%3A1337","udp%3A%2F%2Fopen.demonii.com%3A1337","udp%3A%2F%2Ftracker.coppersurfer.tk%3A6969","udp%3A%2F%2Fexodus.desync.com%3A6969"],"infoHash":"55cd01b71e604f2c30b37886bd0cbe3cdb925fa9","infoHashBuffer":{"type":"Buffer","data":[85,205,1,183,30,96,79,44,48,179,120,134,189,12,190,60,219,146,95,169]},"announce":[],"urlList":[]}}